<?xml version="1.0" encoding="utf-8"?>
<!-- Generator: Adobe Illustrator 16.0.0, SVG Export Plug-In . SVG Version: 6.00 Build 0)  -->
<!DOCTYPE svg PUBLIC "-//W3C//DTD SVG 1.1//EN" "http://www.w3.org/Graphics/SVG/1.1/DTD/svg11.dtd">
<svg version="1.1" id="Layer_1" xmlns="http://www.w3.org/2000/svg" xmlns:xlink="http://www.w3.org/1999/xlink" x="0px" y="0px"
	 width="708.66px" height="425.2px" viewBox="0 0 708.66 425.2" enable-background="new 0 0 708.66 425.2" xml:space="preserve">
<g>
	<path fill="#FFFFFF" d="M161.405,233.374c0,10.917-1.543,20.569-4.63,28.953c-3.087,8.388-8.036,15.07-14.84,20.054
		c-6.808,4.983-15.593,8.028-26.355,9.137c-10.767,1.105-23.904-0.081-39.415-3.56c0-6.485,0-13.053,0-19.697
		c0-6.646,0-13.209,0-19.698c15.196,4.271,26.274,5.262,33.241,2.967c6.964-2.292,10.447-8.344,10.447-18.155
		c0-17.402,0-35.005,0-52.804c0-17.799,0-35.398,0-52.804c6.964,0,13.928,0,20.895,0c6.963,0,13.849,0,20.657,0
		c0,17.406,0,35.005,0,52.804C161.405,198.369,161.405,215.972,161.405,233.374z"/>
	<path fill="#FFFFFF" d="M189.896,289.145c0-26.58,0-53.476,0-80.689c0-27.21,0-54.109,0-80.689c15.986,0,32.132,0,48.438,0
		c16.302,0,32.448,0,48.438,0c0,6.015,0,12.185,0,18.511c0,6.33,0,12.5,0,18.511c-9.182,0-18.401,0-27.662,0s-18.483,0-27.662,0
		c0,3.957,0,7.873,0,11.748c0,3.879,0,7.794,0,11.748c8.389,0,16.858,0,25.406,0s16.936,0,25.168,0c0,5.855,0,11.788,0,17.799
		c0,6.015,0,12.025,0,18.036c-8.232,0-16.621,0-25.168,0s-17.018,0-25.406,0c0,4.591,0,9.256,0,14.002c0,4.747,0,9.415,0,14.002
		c9.179,0,18.402,0,27.662,0s18.479,0,27.662,0c0,6.015,0,12.186,0,18.512c0,6.329,0,12.5,0,18.511c-15.99,0-32.136,0-48.438,0
		C222.028,289.145,205.882,289.145,189.896,289.145z"/>
	<path fill="#FFFFFF" d="M315.264,289.145c0-26.58,0-53.476,0-80.689c0-27.21,0-54.109,0-80.689c6.964,0,13.968,0,21.014,0
		c7.042,0,13.968,0,20.775,0c8.389,15.033,16.896,30.221,25.525,45.565c8.626,15.348,17.133,30.537,25.524,45.566
		c0-15.029,0-30.218,0-45.566c0-15.344,0-30.533,0-45.565c6.805,0,13.612,0,20.42,0c6.804,0,13.612,0,20.42,0
		c0,26.58,0,53.479,0,80.689c0,27.214,0,54.109,0,80.689c-6.808,0-13.734,0-20.776,0c-7.045,0-14.05,0-21.013,0
		c-8.393-15.029-16.899-30.218-25.525-45.565c-8.629-15.345-17.137-30.533-25.524-45.566c0,15.033,0,30.221,0,45.566
		c0,15.348,0,30.536,0,45.565c-6.808,0-13.616,0-20.42,0C328.875,289.145,322.068,289.145,315.264,289.145z"/>
	<path fill="#FFFFFF" d="M464.374,289.145c8.229-26.58,16.502-53.476,24.813-80.689c8.311-27.21,16.58-54.109,24.813-80.689
		c9.338,0,18.795,0,28.374,0c9.575,0,19.032,0,28.374,0c8.229,26.58,16.502,53.479,24.813,80.689
		c8.311,27.214,16.58,54.109,24.813,80.689c-6.808,0-13.734,0-20.776,0c-7.045,0-14.05,0-21.013,0
		c-1.585-5.062-3.087-10.164-4.512-15.308c-1.425-5.139-2.931-10.241-4.512-15.307c-9.022,0-18.086,0-27.187,0
		c-9.104,0-18.164,0-27.187,0c-1.585,5.065-3.087,10.168-4.512,15.307c-1.425,5.144-2.931,10.246-4.512,15.308
		c-6.808,0-13.734,0-20.775,0C478.342,289.145,471.338,289.145,464.374,289.145z M525.634,223.169c5.539,0,11.118,0,16.739,0
		c5.617,0,11.196,0,16.739,0c-2.693-9.333-5.461-18.748-8.311-28.241c-2.849-9.493-5.62-18.904-8.31-28.242
		c-2.694,9.337-5.502,18.749-8.43,28.242C531.132,204.421,528.323,213.836,525.634,223.169z"/>
</g>
<g>
	<path fill="#FFFFFF" d="M510.484,333.087c0-4.739,0-9.534,0-14.386s0-9.647,0-14.386c1.739,0,3.485,0,5.238,0
		c1.752,0,3.484,0,5.195,0c2.16,0,4.039,0.416,5.638,1.248s2.847,1.996,3.745,3.49c0.896,1.496,1.346,3.244,1.346,5.247
		c0,1.975-0.441,3.709-1.325,5.204s-2.09,2.651-3.618,3.47c-1.529,0.818-3.261,1.227-5.195,1.227c-0.618,0-1.228,0-1.83,0
		c-0.604,0-1.214,0-1.831,0c0,1.468,0,2.948,0,4.443s0,2.976,0,4.442c-1.206,0-2.426,0-3.66,0S511.719,333.087,510.484,333.087z
		 M520.918,310.958c-0.505,0-1.017,0-1.535,0c-0.52,0-1.031,0-1.536,0c0,1.129,0,2.264,0,3.406s0,2.278,0,3.406
		c0.562,0,1.143,0,1.746,0s1.185,0,1.746,0c0.869,0,1.578-0.324,2.125-0.974c0.547-0.648,0.82-1.452,0.82-2.411
		c0-0.987-0.295-1.806-0.884-2.454C522.812,311.282,521.984,310.958,520.918,310.958z"/>
	<path fill="#FFFFFF" d="M546.119,323.144c0,1.946-0.273,3.667-0.82,5.162s-1.424,2.687-2.63,3.575s-2.763,1.432-4.67,1.629
		s-4.235-0.015-6.983-0.635c0-1.156,0-2.327,0-3.512s0-2.354,0-3.512c2.692,0.762,4.655,0.938,5.89,0.529
		c1.233-0.409,1.852-1.488,1.852-3.237c0-3.103,0-6.241,0-9.414c0-3.174,0-6.312,0-9.414c1.233,0,2.468,0,3.702,0
		c1.233,0,2.454,0,3.66,0c0,3.103,0,6.24,0,9.414C546.119,316.902,546.119,320.041,546.119,323.144z"/>
	<path fill="#FFFFFF" d="M558.529,333.087c-1.206,0-2.426,0-3.66,0s-2.468,0-3.702,0c0-4.739,0-9.534,0-14.386s0-9.647,0-14.386
		c1.234,0,2.468,0,3.702,0s2.454,0,3.66,0c0,1.721,0,3.448,0,5.183c0,1.735,0,3.463,0,5.184c1.486,0,2.987,0,4.502,0s3.001,0,4.46,0
		c0-1.721,0-3.448,0-5.184c0-1.734,0-3.462,0-5.183c1.233,0,2.468,0,3.702,0c1.233,0,2.454,0,3.66,0c0,4.738,0,9.534,0,14.386
		s0,9.646,0,14.386c-1.206,0-2.427,0-3.66,0c-1.234,0-2.469,0-3.702,0c0-1.918,0-3.857,0-5.817c0-1.961,0-3.886,0-5.776
		c-1.459,0-2.945,0-4.46,0s-3.016,0-4.502,0c0,1.891,0,3.815,0,5.776C558.529,329.229,558.529,331.169,558.529,333.087z"/>
	<path fill="#FFFFFF" d="M583.73,333.764c-0.813,0-1.564-0.197-2.251-0.592c-0.688-0.396-1.228-0.932-1.62-1.608
		s-0.589-1.41-0.589-2.2c0-0.789,0.196-1.516,0.589-2.179c0.393-0.662,0.933-1.191,1.62-1.587c0.687-0.395,1.438-0.592,2.251-0.592
		s1.549,0.197,2.209,0.592c0.658,0.396,1.191,0.925,1.599,1.587c0.406,0.663,0.609,1.39,0.609,2.179c0,0.79-0.203,1.523-0.609,2.2
		c-0.407,0.677-0.94,1.213-1.599,1.608C585.279,333.566,584.544,333.764,583.73,333.764z"/>
	<path fill="#FFFFFF" d="M592.564,333.087c0-4.739,0-9.534,0-14.386s0-9.647,0-14.386c1.234,0,2.468,0,3.702,0s2.454,0,3.66,0
		c0,1.834,0,3.688,0,5.563c0,1.876,0,3.73,0,5.564c1.431-1.834,2.868-3.688,4.313-5.564c1.444-1.875,2.882-3.729,4.313-5.563
		c1.374,0,2.763,0,4.165,0s2.791,0,4.165,0c-1.767,2.257-3.555,4.534-5.364,6.833c-1.809,2.3-3.597,4.577-5.363,6.833
		c1.851,2.482,3.723,4.993,5.616,7.531c1.894,2.539,3.766,5.063,5.616,7.574c-1.459,0-2.924,0-4.396,0s-2.938,0-4.396,0
		c-1.431-2.003-2.875-4.013-4.333-6.029c-1.459-2.017-2.903-4.013-4.334-5.987c0,1.975,0,3.971,0,5.987s0,4.026,0,6.029
		c-1.206,0-2.426,0-3.66,0S593.799,333.087,592.564,333.087z"/>
</g>
</svg>
