<?xml version="1.0" encoding="utf-8"?>
<!-- Generator: Adobe Illustrator 16.0.0, SVG Export Plug-In . SVG Version: 6.00 Build 0)  -->
<!DOCTYPE svg PUBLIC "-//W3C//DTD SVG 1.1//EN" "http://www.w3.org/Graphics/SVG/1.1/DTD/svg11.dtd">
<svg version="1.1" id="Layer_1" xmlns="http://www.w3.org/2000/svg" xmlns:xlink="http://www.w3.org/1999/xlink" x="0px" y="0px"
	 width="2551.18px" height="992.13px" viewBox="0 0 2551.18 992.13" enable-background="new 0 0 2551.18 992.13"
	 xml:space="preserve">
<g>
	<path fill="#FFFFFF" d="M161.86,342.506h91.309v45.898h2.441c10.254-26.367,34.668-49.316,74.707-49.316
		c53.223,0,104.004,40.527,104.004,136.23c0,91.308-47.852,135.742-104.98,135.742c-38.086,0-62.988-20.508-73.73-46.875h-1.465
		v143.066H161.86V342.506z M296.138,540.26c27.344,0,43.457-24.902,43.457-65.429c0-40.039-16.113-64.453-43.457-64.453
		c-27.832,0-43.945,24.414-43.945,64.453C252.192,514.869,268.306,540.26,296.138,540.26z"/>
	<path fill="#FFFFFF" d="M465.083,475.807c0-82.031,52.246-136.719,134.277-136.719c78.613,0,130.859,50.781,130.859,135.742v21.973
		H556.392v3.417c0,27.344,17.578,46.875,46.875,46.875c20.02,0,36.133-8.789,41.992-23.926h84.473
		c-9.277,54.688-56.152,89.355-128.418,89.355C516.841,612.525,465.083,561.256,465.083,475.807z M644.771,445.045
		c-0.488-23.926-19.043-40.527-43.457-40.527c-24.658,0-44.189,16.846-44.922,40.527H644.771z"/>
	<path fill="#FFFFFF" d="M925.532,409.401h-46.387v113.281c0,12.695,6.348,17.578,19.043,18.066
		c6.836,0.488,20.508-0.488,30.762-1.465v68.848c-8.789,1.465-22.949,3.418-43.945,3.418c-64.453,0-98.633-24.414-98.145-79.59
		V409.401h-34.18v-66.895h34.18V279.03h92.285v63.477h46.387V409.401z"/>
	<path fill="#FFFFFF" d="M1079.341,401.1c-17.578,0-31.738,6.836-31.25,18.555c-0.488,8.301,5.859,15.625,26.855,19.531
		l52.734,9.766c54.199,9.766,80.078,32.715,80.566,71.777c-0.488,56.152-53.711,91.797-126.465,91.797
		c-80.078,0-126.465-35.645-131.836-89.355h91.797c2.93,17.09,18.066,26.855,40.527,26.855c18.555,0,31.738-6.836,32.227-18.555
		c-0.488-10.742-9.766-16.602-31.25-20.508l-46.387-8.301c-53.711-9.765-80.566-36.621-80.566-77.636
		c0-54.688,46.387-85.938,121.094-85.938c75.195,0,121.582,33.203,124.023,88.867h-84.961
		C1114.497,411.354,1098.872,401.1,1079.341,401.1z"/>
	<path fill="#FFFFFF" d="M1245.845,342.506h91.309v45.898h2.441c10.254-26.367,34.668-49.316,74.707-49.316
		c53.223,0,104.004,40.527,104.004,136.23c0,91.308-47.852,135.742-104.98,135.742c-38.086,0-62.988-20.508-73.73-46.875h-1.465
		v143.066h-92.285V342.506z M1380.122,540.26c27.344,0,43.457-24.902,43.457-65.429c0-40.039-16.113-64.453-43.457-64.453
		c-27.832,0-43.945,24.414-43.945,64.453C1336.177,514.869,1352.29,540.26,1380.122,540.26z"/>
	<path fill="#FFFFFF" d="M1644.281,449.928l62.012-2.441v-21.484c0-14.648-12.207-22.949-30.273-22.949
		c-19.043,0-31.25,8.301-33.691,24.902h-85.448c3.418-48.34,42.479-88.867,120.604-88.867c73.73,0,121.094,36.133,121.094,87.402
		v181.152h-86.426v-37.109h-1.953c-15.625,28.809-41.992,41.504-77.148,41.504c-50.78,0-86.425-24.902-86.425-77.637
		C1546.626,475.807,1590.083,453.346,1644.281,449.928z M1662.836,552.955c22.949,0,44.434-14.648,43.945-39.551v-14.16
		c-9.277,0.244-33.691,1.221-45.898,2.441c-16.602,1.953-27.344,13.184-27.344,27.344
		C1633.539,544.654,1645.746,552.955,1662.836,552.955z"/>
	<path fill="#FFFFFF" d="M1835.199,475.807c0-81.543,51.27-136.719,136.719-136.719c76.66,0,125.488,43.945,126.465,112.305h-85.938
		c-2.441-27.832-17.578-42.969-39.063-42.969c-26.367,0-43.945,21.973-43.945,66.406c0,44.921,17.578,67.382,43.945,67.382
		c21.484,0,36.621-15.137,39.063-43.457h85.938c-1.465,69.336-48.828,113.77-126.465,113.77
		C1886.469,612.525,1835.199,557.35,1835.199,475.807z"/>
	<path fill="#FFFFFF" d="M2128.168,475.807c0-82.031,52.246-136.719,134.277-136.719c78.613,0,130.859,50.781,130.859,135.742
		v21.973h-173.828v3.417c0,27.344,17.578,46.875,46.875,46.875c20.02,0,36.133-8.789,41.992-23.926h84.473
		c-9.277,54.688-56.152,89.355-128.418,89.355C2179.926,612.525,2128.168,561.256,2128.168,475.807z M2307.855,445.045
		c-0.488-23.926-19.043-40.527-43.457-40.527c-24.658,0-44.189,16.846-44.922,40.527H2307.855z"/>
</g>
</svg>
